<?xml version="1.0" encoding="UTF-8"?><svg id="Layer_1" xmlns="http://www.w3.org/2000/svg" viewBox="0 0 40.4 40.32"><defs><style>.cls-1{fill:#ffdc00;}</style></defs><path class="cls-1" d="m30.68,8.88c-.27-.06-.53.12-.59.39-.05.27.12.53.39.59,4.18.85,7.22,4.57,7.22,8.85,0,4.98-4.05,9.03-9.03,9.03h-13.85s-.1,0-.14.02c-.05.02-.1.04-.15.07l-4.18,2.8s-.03-.08-.02-.1l.94-2.09c.03-.07.05-.18.04-.26-.01-.25-.2-.45-.45-.48-4.66-.44-8.17-4.3-8.17-8.99,0-4.98,4.05-9.03,9.03-9.03h9.49c.28,0,.5-.22.5-.5s-.22-.5-.5-.5h-9.49c-5.53,0-10.03,4.5-10.03,10.03,0,4.97,3.57,9.12,8.4,9.9l-.68,1.51c-.2.45-.08.96.29,1.28.2.17.45.25.69.25.21,0,.43-.06.61-.19l3.95-2.72h13.7c5.53,0,10.03-4.5,10.03-10.03,0-4.75-3.37-8.88-8.02-9.83Z"/><path class="cls-1" d="m12.56,18.47c-.18.18-.26.39-.26.65s.09.48.26.66c.18.18.39.27.64.27s.46-.09.65-.27c.18-.18.27-.4.27-.66s-.09-.48-.27-.65c-.18-.18-.4-.26-.65-.26s-.46.09-.64.26Z"/><path class="cls-1" d="m19.56,18.47c-.18.18-.26.39-.26.65s.09.48.26.66c.18.18.39.27.64.27s.46-.09.65-.27c.18-.18.27-.4.27-.66s-.09-.48-.27-.65c-.18-.18-.4-.26-.65-.26s-.46.09-.64.26Z"/><path class="cls-1" d="m27.19,20.06c.25,0,.46-.09.65-.27.18-.18.27-.4.27-.66s-.09-.48-.27-.65c-.18-.18-.4-.26-.65-.26s-.46.09-.64.26c-.18.18-.26.39-.26.65s.09.48.26.66c.18.18.39.27.64.27Z"/></svg>