<?xml version="1.0" encoding="UTF-8"?><svg id="Layer_1" xmlns="http://www.w3.org/2000/svg" viewBox="0 0 40.4 40.32"><defs><style>.cls-1{fill:#ffdc00;}</style></defs><path class="cls-1" d="m6.1,24.01c1.1-.81,2.23-1.56,3.35-2.21.6-.35.93-.52,1.37-.63.86-.22,1.78-.13,2.79.27l10.2,3.13c.68.2,1.39.67,1.34,1.39-.02.27-.13.53-.33.74-.25.28-.68.42-1.12.39l-6.93-.51c-.28-.03-.52.19-.54.46-.02.28.19.52.46.54l6.93.51c.07,0,.13,0,.2,0,.68,0,1.31-.26,1.73-.72.34-.38.55-.86.58-1.35.07-1.09-.72-2.02-2.05-2.41l-10.16-3.11c-1.17-.46-2.3-.56-3.37-.29-.55.14-.95.34-1.63.73-1.13.66-2.26,1.41-3.37,2.22l-3.51.93c-.27.07-.43.34-.36.61.07.27.35.43.61.36l3.6-.95c.06-.02.12-.04.17-.08Z"/><path class="cls-1" d="m35.43,22.52c-1.13.36-2.28.75-3.42,1.16-1.39.51-2.8,1.06-4.17,1.64-.25.11-.37.4-.27.66.11.25.4.37.66.27,1.36-.58,2.75-1.12,4.12-1.62,1.12-.41,2.26-.79,3.31-1.13.75-.13,1.51.24,1.85.89.36.68.14,1.46-.22,1.9-.29.36-.74.59-1.01.73l-.11.06c-.91.49-1.64.86-2.46,1.28-.51.26-1.05.53-1.69.87-1.98,1.02-2.76,1.4-3.25,1.63-.45.22-.67.32-1.33.69-.62.35-1.27.68-1.91,1-.5.25-.99.5-1.52.78-.69.37-1.29.69-2.09.67-.47-.02-.95-.16-1.47-.44l-11.97-4.56c-.13-.05-.27-.04-.39.02l-3.6,1.7c-.25.12-.36.42-.24.67.12.25.41.36.67.24l3.41-1.61,11.7,4.45c.6.33,1.22.52,1.86.54.04,0,.09,0,.13,0,1,0,1.75-.4,2.5-.81.48-.26.97-.5,1.45-.75.66-.33,1.32-.66,1.96-1.02.63-.36.83-.45,1.26-.66.49-.24,1.28-.61,3.28-1.64.64-.33,1.18-.61,1.69-.86.83-.42,1.56-.79,2.48-1.29l.1-.05c.32-.16.91-.47,1.33-.99.57-.7.9-1.9.33-2.99-.55-1.05-1.71-1.62-2.97-1.4Z"/><path class="cls-1" d="m17.85,18.22c.26-.09.4-.37.31-.63-.29-.88-.44-1.79-.44-2.73,0-4.7,3.83-8.53,8.53-8.53s8.53,3.83,8.53,8.53c0,2-.71,3.95-1.99,5.48-.18.21-.15.53.06.7.09.08.21.12.32.12.14,0,.28-.06.38-.18,1.43-1.71,2.23-3.89,2.23-6.12,0-5.26-4.28-9.53-9.53-9.53s-9.53,4.28-9.53,9.53c0,1.04.17,2.06.5,3.04.09.26.37.4.63.31Z"/><path class="cls-1" d="m26.11,18.82c.07.07.16.11.27.11.11,0,.2-.04.28-.11s.11-.16.11-.27v-.9c.25-.04.49-.09.71-.19.33-.16.6-.37.79-.64.19-.27.29-.57.29-.92,0-.32-.05-.6-.15-.82-.1-.22-.25-.4-.44-.55s-.41-.26-.67-.36c-.16-.06-.35-.11-.53-.16v-2.27c.06.01.12,0,.18.03.19.06.37.13.53.22.17.09.3.2.41.32.06.04.12.07.19.07.1,0,.19-.04.27-.12s.12-.16.12-.25c0-.12-.06-.24-.19-.36-.21-.22-.48-.39-.82-.51-.22-.08-.45-.13-.69-.15v-.59c0-.11-.03-.2-.1-.27-.07-.07-.16-.11-.27-.11-.11,0-.2.04-.27.11s-.11.17-.11.27v.59c-.28.03-.55.09-.78.19-.33.15-.59.36-.78.62s-.28.58-.28.93c0,.29.05.53.15.74s.23.39.41.53c.18.15.39.27.63.37.2.08.43.15.66.21v2.35c-.23-.03-.45-.07-.64-.16-.28-.12-.55-.31-.79-.54-.07-.07-.15-.1-.23-.1-.11,0-.19.04-.27.12s-.11.17-.11.27c0,.06.01.12.04.18.03.06.06.1.11.14.32.3.66.52,1.01.65.26.1.56.15.88.18v.89c0,.11.04.19.11.27Zm.65-4c.08.03.16.06.23.09.25.11.44.24.58.4.14.16.21.37.21.62,0,.21-.07.39-.2.54-.13.16-.31.28-.52.36-.09.04-.2.06-.3.08v-2.1Zm-1.08-1.15c-.23-.1-.42-.22-.55-.37-.14-.15-.21-.35-.21-.58,0-.21.06-.39.18-.54.12-.15.29-.27.51-.35.12-.05.25-.08.39-.1v2.06c-.11-.04-.23-.07-.33-.11Z"/></svg>