<?xml version="1.0" encoding="UTF-8"?><svg id="Layer_1" xmlns="http://www.w3.org/2000/svg" viewBox="0 0 40.4 40.32"><defs><style>.cls-1{fill:#ffdc00;}</style></defs><path class="cls-1" d="m31.32,22.6v-5.42c0-5.6-4.16-10.23-9.56-11,0-.03.02-.05.02-.08,0-.87-.71-1.58-1.58-1.58s-1.58.71-1.58,1.58c0,.03.01.05.02.08-5.39.77-9.56,5.4-9.56,11v5.42c-1.16.65-1.9,1.88-1.9,3.23,0,2.04,1.66,3.69,3.69,3.69h18.66c2.04,0,3.69-1.66,3.69-3.69,0-1.35-.74-2.58-1.9-3.23ZM20.2,5.53c.31,0,.57.25.58.56-.19,0-.38-.03-.58-.03s-.39.02-.58.03c0-.31.26-.56.58-.56Zm9.33,23H10.87c-1.48,0-2.69-1.21-2.69-2.69,0-1.02.58-1.95,1.48-2.41h9.53c.28,0,.5-.22.5-.5s-.22-.5-.5-.5h-9.11v-5.24c0-5.58,4.54-10.12,10.12-10.12s10.12,4.54,10.12,10.12v5.68c0,.07.04.19.06.25.05.12.14.21.25.26.96.44,1.58,1.4,1.58,2.45,0,1.48-1.21,2.69-2.69,2.69Z"/><path class="cls-1" d="m24.15,30.85c-.28,0-.5.22-.5.5,0,1.9-1.54,3.44-3.44,3.44s-3.44-1.54-3.44-3.44c0-.28-.22-.5-.5-.5s-.5.22-.5.5c0,2.45,1.99,4.44,4.44,4.44s4.44-1.99,4.44-4.44c0-.28-.22-.5-.5-.5Z"/></svg>