<svg xmlns="http://www.w3.org/2000/svg" width="14.4" height="14.4" viewBox="0 0 14.4 14.4">
  <path id="Path_663" data-name="Path 663" d="M93,184.8a7.2,7.2,0,1,0,7.2,7.2,7.2,7.2,0,0,0-7.2-7.2m0,1.714A5.486,5.486,0,1,1,87.514,192,5.486,5.486,0,0,1,93,186.514m.511,3.4a.858.858,0,0,0-1.119.084l-2.38,2.39-.082.1a.855.855,0,0,0,.085,1.115l.1.083a.858.858,0,0,0,1.116-.085L93,191.813l1.773,1.781.1.083a.857.857,0,0,0,1.118-1.293l-2.38-2.39Z" transform="translate(-85.8 -184.8)" fill="#00ab6b" fill-rule="evenodd"/>
</svg>
