<svg xmlns="http://www.w3.org/2000/svg" width="14.4" height="14.4" viewBox="0 0 14.4 14.4">
  <path id="Path_1049" data-name="Path 1049" d="M112,278.8a7.2,7.2,0,1,0,7.2,7.2,7.2,7.2,0,0,0-7.2-7.2m0,1.714A5.486,5.486,0,1,1,106.514,286,5.486,5.486,0,0,1,112,280.514m.511,3.4a.858.858,0,0,0-1.119.084l-2.38,2.39-.082.1a.855.855,0,0,0,.085,1.115l.1.083a.858.858,0,0,0,1.116-.085L112,285.813l1.773,1.781.1.083a.857.857,0,0,0,1.118-1.293l-2.38-2.39Z" transform="translate(119.2 293.2) rotate(-180)" fill="#00ab6b" fill-rule="evenodd"/>
</svg>
