<?xml version="1.0" encoding="UTF-8"?><svg id="Layer_1" xmlns="http://www.w3.org/2000/svg" viewBox="0 0 40.4 40.32"><defs><style>.cls-1{fill:#ffdc00;}</style></defs><path class="cls-1" d="m20.2,9.75c-8.86,0-16.07,7.21-16.07,16.07,0,.28.22.5.5.5h7.67c.28,0,.5-.22.5-.5s-.22-.5-.5-.5h-7.16c.27-8.08,6.92-14.57,15.06-14.57s14.8,6.49,15.06,14.57h-7.15c-.28,0-.5.22-.5.5s.22.5.5.5h7.66c.28,0,.5-.22.5-.5,0-8.86-7.21-16.07-16.07-16.07Z"/><path class="cls-1" d="m28.57,17.88c.2-.2.2-.51,0-.71s-.51-.2-.71,0l-5.49,5.49s0,0,0,0c-.64-.38-1.37-.61-2.16-.61-2.35,0-4.25,1.91-4.25,4.25s1.91,4.25,4.25,4.25,4.25-1.91,4.25-4.25c0-1.19-.49-2.26-1.29-3.04l5.4-5.4Zm-5.12,8.44c0,1.79-1.46,3.25-3.25,3.25s-3.25-1.46-3.25-3.25,1.46-3.25,3.25-3.25,3.25,1.46,3.25,3.25Z"/></svg>