<svg xmlns="http://www.w3.org/2000/svg" xmlns:xlink="http://www.w3.org/1999/xlink" width="23" height="22" viewBox="0 0 23 22">
  <defs>
    <clipPath id="clip-path">
      <rect id="Rectangle_738" data-name="Rectangle 738" width="11.521" height="15.048" fill="#fff"/>
    </clipPath>
  </defs>
  <g id="Group_1365" data-name="Group 1365" transform="translate(-3772 -6471)">
    <rect id="Rectangle_735" data-name="Rectangle 735" width="23" height="22" rx="4" transform="translate(3772 6471)" fill="#D36135"/>
    <g id="Group_1377" data-name="Group 1377" transform="translate(3777.74 6474.476)">
      <g id="Group_1377-2" data-name="Group 1377" clip-path="url(#clip-path)">
        <path id="Path_1017" data-name="Path 1017" d="M5.758,15.048H2.023a1.119,1.119,0,0,1-.625-.132.873.873,0,0,1-.393-.73q-.133-1.957-.27-3.915Q.565,7.885.388,5.5C.334,4.76.255,4.024.238,3.284a.164.164,0,0,0-.029-.1A1.119,1.119,0,0,1,0,2.328c0-.151,0-.3,0-.453a.783.783,0,0,1,.823-.83c.936-.006,1.871,0,2.806,0a2.066,2.066,0,0,1,.237,0c.2.024.29-.035.3-.265A.768.768,0,0,1,5,0Q5.759,0,6.514,0A.774.774,0,0,1,7.353.8c.01.2.084.252.272.25.993-.007,1.986,0,2.979,0a.806.806,0,0,1,.915.913c0,.23,0,.461,0,.691a.448.448,0,0,1-.034.231,3,3,0,0,0-.258,1.556c-.1.972-.149,1.949-.217,2.924-.047.667-.09,1.334-.137,2q-.1,1.462-.209,2.925c-.046.66-.093,1.319-.136,1.979a.77.77,0,0,1-.67.755,2.646,2.646,0,0,1-.408.031q-1.846,0-3.692,0M5.771,3.4c-1.489,0-2.978,0-4.467,0-.193,0-.255.061-.238.25.039.436.064.874.1,1.311.082,1.067.167,2.134.247,3.2.064.845.121,1.691.184,2.536.081,1.082.171,2.163.244,3.245.012.179.068.231.242.231q3.7-.006,7.4,0c.173,0,.235-.049.245-.229.034-.66.087-1.319.133-1.978q.1-1.451.207-2.9c.048-.674.091-1.348.14-2.021.08-1.111.165-2.221.243-3.331.021-.307.013-.308-.3-.308H5.771m-.009-.807c1.568,0,3.137,0,4.7,0,.208,0,.276-.069.24-.263a.8.8,0,0,1-.017-.128c-.007-.339-.01-.321-.35-.321H1.231c-.491,0-.422-.043-.421.427,0,.28,0,.28.29.28H5.762M5.783,1.04h0c.2,0,.4,0,.6,0,.058,0,.146.028.154-.068S6.481.847,6.4.847q-.634,0-1.268,0c-.06,0-.12.015-.123.09s.062.1.13.1h.645" transform="translate(0 0)" fill="#fff"/>
        <path id="Path_1018" data-name="Path 1018" d="M88.347,54.214c.067-.809.138-1.639.205-2.469.064-.787.123-1.575.186-2.362q.121-1.514.246-3.027c.013-.165.013-.331.042-.493a.427.427,0,0,1,.491-.375.416.416,0,0,1,.336.493c-.092,1.181-.18,2.363-.275,3.543-.108,1.338-.222,2.676-.333,4.014-.024.286-.032.574-.064.859a.42.42,0,1,1-.835-.054c0-.036,0-.072,0-.129" transform="translate(-80.699 -41.545)" fill="#fff"/>
        <path id="Path_1019" data-name="Path 1019" d="M28.941,54.283c0,.026,0,.077,0,.127a.439.439,0,0,1-.383.427.415.415,0,0,1-.425-.328,6.073,6.073,0,0,1-.078-.706c-.092-1.168-.18-2.336-.272-3.5-.112-1.418-.229-2.836-.339-4.254-.024-.309.126-.518.365-.543s.449.178.474.483c.079.981.15,1.963.229,2.944.093,1.153.192,2.305.285,3.458.051.623.1,1.247.146,1.894" transform="translate(-25.065 -41.563)" fill="#fff"/>
        <path id="Path_1020" data-name="Path 1020" d="M62.868,49.859q0-2.083,0-4.165a.473.473,0,0,1,.183-.436.414.414,0,0,1,.62.207.934.934,0,0,1,.04.341q0,4.057,0,8.115a1.265,1.265,0,0,1-.028.3.418.418,0,0,1-.445.326.408.408,0,0,1-.364-.415c-.006-.611,0-1.223,0-1.834q0-1.219,0-2.439" transform="translate(-57.425 -41.276)" fill="#fff"/>
      </g>
    </g>
  </g>
</svg>
