<?xml version="1.0" encoding="UTF-8"?><svg id="Layer_1" xmlns="http://www.w3.org/2000/svg" viewBox="0 0 40.4 40.32"><defs><style>.cls-1{fill:#ffdc00;}</style></defs><path class="cls-1" d="m23.18,5.36c-5.07-.97-10.05.54-13.65,4.13s-5.11,8.57-4.13,13.65c1.14,5.94,5.89,10.69,11.83,11.82,1,.19,2,.29,2.98.29,1.56,0,3.1-.24,4.59-.72.26-.08.41-.37.32-.63-.08-.26-.37-.41-.63-.32-2.28.73-4.66.86-7.08.4-5.54-1.06-9.97-5.49-11.03-11.03-.91-4.74.5-9.39,3.86-12.75s8.01-4.77,12.75-3.86c5.48,1.05,9.9,5.42,11,10.88.47,2.36.38,4.68-.27,6.92-.08.27.07.54.34.62.26.08.54-.07.62-.34.7-2.39.8-4.88.3-7.4-1.18-5.85-5.92-10.54-11.79-11.67Z"/><path class="cls-1" d="m20.76,13.95c.15-.15.22-.33.22-.54s-.07-.38-.22-.52c-.15-.14-.33-.21-.55-.21s-.41.07-.55.22c-.15.15-.22.32-.22.53s.07.38.22.52c.15.14.33.21.55.21s.41-.07.55-.22Z"/><path class="cls-1" d="m19.43,26.86c0,.43.35.77.77.77s.77-.35.77-.77v-9.63c0-.43-.35-.77-.77-.77s-.77.35-.77.77v9.63Z"/></svg>