<svg xmlns="http://www.w3.org/2000/svg" xmlns:xlink="http://www.w3.org/1999/xlink" width="19.989" height="29.419" viewBox="0 0 19.989 29.419">
  <defs>
    <clipPath id="clip-path">
      <rect id="Rectangle_797" data-name="Rectangle 797" width="19.989" height="29.419" transform="translate(-2 -3)" fill="#fff" stroke="#d19422" stroke-width="1"/>
    </clipPath>
  </defs>
  <g id="Group_1465" data-name="Group 1465" transform="translate(2 3)">
    <path id="Path_1104" data-name="Path 1104" d="M10.77,7.646h0Z" transform="translate(-6.312 -4.482)" fill="#fff" stroke="#d19422" stroke-width="1"/>
    <g id="Group_1454" data-name="Group 1454" transform="translate(0 0)">
      <g id="Group_1453" data-name="Group 1453" clip-path="url(#clip-path)">
        <line id="Line_10" data-name="Line 10" x2="11.531" transform="translate(4.458 3.165)" fill="none" stroke="#d19422" stroke-miterlimit="10" stroke-width="2"/>
        <path id="Path_1105" data-name="Path 1105" d="M6.5,3.751A2.751,2.751,0,1,1,3.75,1,2.751,2.751,0,0,1,6.5,3.751" transform="translate(-0.586 -0.586)" fill="#fff" stroke="#d19422" stroke-width="1"/>
        <path id="Path_1106" data-name="Path 1106" d="M6.5,3.751A2.751,2.751,0,1,1,3.75,1,2.751,2.751,0,0,1,6.5,3.751Z" transform="translate(-0.586 -0.586)" fill="#fff" stroke="#d19422" stroke-miterlimit="10" stroke-width="2"/>
        <line id="Line_11" data-name="Line 11" x2="11.531" transform="translate(4.458 11.71)" stroke="#d19422" stroke-width="1"/>
        <line id="Line_12" data-name="Line 12" x2="11.531" transform="translate(4.458 11.71)" fill="none" stroke="#d19422" stroke-miterlimit="10" stroke-width="2"/>
        <path id="Path_1107" data-name="Path 1107" d="M6.5,24.395A2.751,2.751,0,1,1,3.75,21.644,2.751,2.751,0,0,1,6.5,24.395" transform="translate(-0.586 -12.685)" fill="#fff" stroke="#d19422" stroke-width="1"/>
        <path id="Path_1108" data-name="Path 1108" d="M6.5,24.395A2.751,2.751,0,1,1,3.75,21.644,2.751,2.751,0,0,1,6.5,24.395Z" transform="translate(-0.586 -12.685)" fill="#fff" stroke="#d19422" stroke-miterlimit="10" stroke-width="2"/>
        <line id="Line_13" data-name="Line 13" x2="11.531" transform="translate(4.458 20.255)" stroke="#d19422" stroke-width="1"/>
        <line id="Line_14" data-name="Line 14" x2="11.531" transform="translate(4.458 20.255)" fill="none" stroke="#d19422" stroke-miterlimit="10" stroke-width="2"/>
        <path id="Path_1109" data-name="Path 1109" d="M6.5,45.04A2.751,2.751,0,1,1,3.75,42.289,2.751,2.751,0,0,1,6.5,45.04" transform="translate(-0.586 -24.785)" fill="#fff" stroke="#d19422" stroke-width="1"/>
        <path id="Path_1110" data-name="Path 1110" d="M6.5,45.04A2.751,2.751,0,1,1,3.75,42.289,2.751,2.751,0,0,1,6.5,45.04Z" transform="translate(-0.586 -24.785)" fill="#fff" stroke="#d19422" stroke-miterlimit="10" stroke-width="2"/>
      </g>
    </g>
  </g>
</svg>
