<svg xmlns="http://www.w3.org/2000/svg" xmlns:xlink="http://www.w3.org/1999/xlink" width="19.888" height="16.994" viewBox="0 0 19.888 16.994">
  <defs>
    <clipPath id="clip-path">
      <rect id="Rectangle_796" data-name="Rectangle 796" width="19.888" height="16.994" fill="#3ad6a1"/>
    </clipPath>
  </defs>
  <g id="Group_1463" data-name="Group 1463" transform="translate(0 0)">
    <g id="Group_1451" data-name="Group 1451" transform="translate(0 0)" clip-path="url(#clip-path)">
      <path id="Path_1103" data-name="Path 1103" d="M18.083,0H1.8A1.8,1.8,0,0,0,0,1.8V15.189a1.8,1.8,0,0,0,1.8,1.8H18.083a1.8,1.8,0,0,0,1.8-1.8V1.8a1.8,1.8,0,0,0-1.8-1.8M14.014,12.148a3.242,3.242,0,0,1-1.228,1.088,5.385,5.385,0,0,1-1.848.551V14.83a.353.353,0,0,1-.112.268.372.372,0,0,1-.261.1H9.329a.358.358,0,0,1-.372-.372V13.8a5.251,5.251,0,0,1-1.914-.582,3.13,3.13,0,0,1-1.156-1.05,2.648,2.648,0,0,1-.417-1.3.3.3,0,0,1,.1-.216.318.318,0,0,1,.232-.1H7.675a.541.541,0,0,1,.313.074,1.263,1.263,0,0,1,.208.194,1.745,1.745,0,0,0,.335.432,1.582,1.582,0,0,0,.566.336,2.578,2.578,0,0,0,.872.126,2.531,2.531,0,0,0,1.3-.268.82.82,0,0,0,.44-.73.7.7,0,0,0-.239-.543,2.132,2.132,0,0,0-.767-.388A13.72,13.72,0,0,0,9.3,9.435a8.65,8.65,0,0,1-1.929-.619,2.961,2.961,0,0,1-1.215-1,2.7,2.7,0,0,1-.417-1.542A2.723,2.723,0,0,1,6.595,4.25,4.081,4.081,0,0,1,8.957,3.207V2.164a.358.358,0,0,1,.372-.372h1.237a.368.368,0,0,1,.261.1.352.352,0,0,1,.112.268V3.237a4.508,4.508,0,0,1,1.728.64,3.518,3.518,0,0,1,1.066,1.043,2.222,2.222,0,0,1,.38,1.118.31.31,0,0,1-.088.216.3.3,0,0,1-.224.1H11.832a.638.638,0,0,1-.283-.06.545.545,0,0,1-.208-.194,1.018,1.018,0,0,0-.478-.573,1.834,1.834,0,0,0-1-.246,1.92,1.92,0,0,0-1.013.23.778.778,0,0,0-.373.708.759.759,0,0,0,.2.521,1.61,1.61,0,0,0,.678.388,12.131,12.131,0,0,0,1.3.342,9.725,9.725,0,0,1,2.191.634,2.744,2.744,0,0,1,1.221.983,2.744,2.744,0,0,1,.388,1.512,2.762,2.762,0,0,1-.44,1.55" transform="translate(0 0)" fill="#3ad6a1"/>
    </g>
  </g>
</svg>
