<svg xmlns="http://www.w3.org/2000/svg" xmlns:xlink="http://www.w3.org/1999/xlink" width="28" height="23.673" viewBox="0 0 28 23.673">
  <defs>
    <clipPath id="clip-path">
      <rect id="Rectangle_792" data-name="Rectangle 792" width="28" height="23.673" fill="#272a3b"/>
    </clipPath>
  </defs>
  <g id="head_to_head_competition" transform="translate(0 -5)">
    <g id="Group_1446" data-name="Group 1446" transform="translate(0 5)" clip-path="url(#clip-path)">
      <path id="Path_1100" data-name="Path 1100" d="M24.047,10.594l.146-1.024a4.074,4.074,0,0,0,1.561-.683c2.1-1.532,1.787-4.61,1.756-4.877-.275-2.343-1.948-4.169-2.341-4-.42.181.969,2.484.049,4.536-.71,1.584-2.493,2.34-3.9,2.731A7.411,7.411,0,0,0,19.608,6.01,10.788,10.788,0,0,0,14,4.72,10.735,10.735,0,0,0,8.391,6.01,7.421,7.421,0,0,0,6.683,7.278c-1.409-.391-3.191-1.147-3.9-2.731C1.861,2.494,3.25.192,2.83.01,2.437-.159.765,1.667.489,4.01.458,4.277.142,7.355,2.245,8.887a4.072,4.072,0,0,0,1.56.683l.146,1.024c-3.146.191-3.908.58-3.951.927-.063.507,1.385,1.206,2.634,1.365A5.138,5.138,0,0,0,5.659,12.3L9.415,17.52A3.858,3.858,0,0,0,8.586,20.4a3.8,3.8,0,0,0,1.365,2.39,4.37,4.37,0,0,0,3.55.8,2.833,2.833,0,0,1,1,0,4.37,4.37,0,0,0,3.55-.8,3.8,3.8,0,0,0,1.365-2.39,3.862,3.862,0,0,0-.829-2.878L22.34,12.3a5.139,5.139,0,0,0,3.024.585c1.249-.16,2.7-.858,2.634-1.365-.043-.346-.8-.735-3.951-.927M9.2,12.168c-.617-1.031.034-2.473.4-2.491.258-.013.572.663.7,1.072.158.517.1.721.322.867.192.125.321.053.883.1.35.027.592.046.67.188.137.25-.253.87-.777,1.1a1.893,1.893,0,0,1-2.2-.83M15.353,22.88A4.241,4.241,0,0,0,14,22.628a5.438,5.438,0,0,0-1.354.252,2.763,2.763,0,0,1,0-5.525,3.852,3.852,0,0,0,2.707,0,2.763,2.763,0,1,1,0,5.525m4.391-10.712a1.893,1.893,0,0,1-2.2.83c-.524-.228-.914-.848-.777-1.1.077-.141.32-.16.67-.188.562-.044.691.028.883-.1.224-.146.165-.35.322-.867.125-.409.438-1.085.7-1.072.368.019,1.019,1.461.4,2.491" transform="translate(0 0)" fill="#272a3b"/>
      <path id="Path_1101" data-name="Path 1101" d="M28.432,45.194a.386.386,0,1,1-.386-.386.386.386,0,0,1,.386.386" transform="translate(-15.864 -25.7)" fill="#272a3b"/>
      <path id="Path_1102" data-name="Path 1102" d="M36.96,45.194a.386.386,0,1,1-.386-.386.386.386,0,0,1,.386.386" transform="translate(-20.756 -25.7)" fill="#272a3b"/>
    </g>
  </g>
</svg>
