<svg xmlns="http://www.w3.org/2000/svg" xmlns:xlink="http://www.w3.org/1999/xlink" width="30.729" height="24.391" viewBox="0 0 30.729 24.391">
  <defs>
    <clipPath id="clip-path">
      <rect id="Rectangle_731" data-name="Rectangle 731" width="30.729" height="24.391" fill="#fff"/>
    </clipPath>
  </defs>
  <g id="message" transform="translate(-302.002 -13.552)">
    <g id="Group_1347" data-name="Group 1347" transform="translate(309.143 21.535)">
      <circle id="Ellipse_12" data-name="Ellipse 12" cx="1.566" cy="1.566" r="1.566" transform="translate(0 0)" fill="#3ad6a1"/>
      <circle id="Ellipse_14" data-name="Ellipse 14" cx="1.566" cy="1.566" r="1.566" transform="translate(7.048 0)" fill="#3ad6a1"/>
      <circle id="Ellipse_15" data-name="Ellipse 15" cx="1.566" cy="1.566" r="1.566" transform="translate(13.313 0)" fill="#3ad6a1"/>
    </g>
    <g id="Group_1346" data-name="Group 1346" transform="translate(302.002 13.552)">
      <g id="Group_1345" data-name="Group 1345" clip-path="url(#clip-path)">
        <path id="Path_1010" data-name="Path 1010" d="M15.379,0H29.731a3.755,3.755,0,0,1,.507.024.518.518,0,0,1,.488.552c0,.09,0,.181,0,.271q0,8.731,0,17.463c0,.677-.15.828-.842.828q-7.99,0-15.981-.005a.931.931,0,0,0-.759.333c-1.444,1.559-2.908,3.1-4.363,4.649a.614.614,0,0,1-.689.24c-.291-.106-.336-.365-.353-.637-.089-1.431-.187-2.861-.266-4.293-.016-.291-.186-.285-.388-.285q-2.29,0-4.581,0c-.6,0-1.2,0-1.8,0C.18,19.136,0,18.95,0,18.417q0-8.85,0-17.7C0,.194.181.01.721,0c1-.009,1.991,0,2.986,0H15.379M8.837,22.6a1.188,1.188,0,0,1,.113-.171c1.229-1.312,2.465-2.617,3.684-3.937a1.181,1.181,0,0,1,.952-.4q7.821.014,15.643.006c.447,0,.449,0,.449-.453q0-8.071,0-16.141c0-.45,0-.451-.45-.451H1.505c-.454,0-.456,0-.456.446q0,8.071,0,16.141c0,.457,0,.458.478.458q3.122,0,6.243,0c.519,0,.661.138.695.654.046.71.068,1.422.144,2.128a6.648,6.648,0,0,0,.227,1.72" transform="translate(0 0)" fill="#fff"/>
      </g>
    </g>
  </g>
</svg>
