<svg xmlns="http://www.w3.org/2000/svg" width="21.7" height="25.547" viewBox="0 0 21.7 25.547">
  <g id="Group_1606" data-name="Group 1606" transform="translate(-1804.406 -43.575)">
    <path id="Path_619" data-name="Path 619" d="M345.673,57.231h-.092c-4.287,0-8.216,3.105-8.6,7.206-.025.3-.042.6-.054.926l-.015.709,0,.765.016-.067a5.13,5.13,0,0,1-1.237,2.425l-.073.093a5.11,5.11,0,0,0-.839,2.566v.3a5.1,5.1,0,0,0,1.163,3.341,6.157,6.157,0,0,0,3.893,1.917,53.747,53.747,0,0,0,11.584,0,6.067,6.067,0,0,0,3.85-1.877,5.108,5.108,0,0,0,1.209-3.147v-.5a5.024,5.024,0,0,0-.842-2.6l-.067-.086L355.386,69a5.226,5.226,0,0,1-1-1.958l-.054-.228-.014-.343c0-.1,0-.2,0-.331v-.818c0-.357-.012-.6-.036-.877-.393-4.107-4.324-7.21-8.609-7.21m-.092,1.5h.092c3.563,0,6.815,2.568,7.129,5.846l.016.227c.007.115.01.238.012.384v.967l.005.362c0,.162.011.3.022.457l.014.1.067.291a6.74,6.74,0,0,0,1.335,2.628l.144.167-.015-.026a3.507,3.507,0,0,1,.588,1.788v.218a3.575,3.575,0,0,1-.828,2.389,4.576,4.576,0,0,1-2.891,1.384,52.258,52.258,0,0,1-11.288,0,4.656,4.656,0,0,1-2.936-1.422,3.591,3.591,0,0,1-.785-2.325V71.89l.021-.228a3.592,3.592,0,0,1,.444-1.336l.105-.171-.051.059a6.633,6.633,0,0,0,1.6-3.138l.015-.153,0-.755c0-.156,0-.29.007-.435.009-.43.027-.805.058-1.159.3-3.27,3.552-5.839,7.117-5.839" transform="translate(1469.63 -13.656)" fill="#f1f1f1" fill-rule="evenodd"/>
    <path id="Path_620" data-name="Path 620" d="M347.3,78.393a.737.737,0,0,1,1.045-.114.756.756,0,0,1,.113,1.056,4.159,4.159,0,0,1-.747.729,4.379,4.379,0,0,1-6.137-.733.756.756,0,0,1,.118-1.055.738.738,0,0,1,1.045.119,2.9,2.9,0,0,0,4.073.472,2.738,2.738,0,0,0,.488-.475" transform="translate(1470.196 -11.874)" fill="#f1f1f1" fill-rule="evenodd"/>
  </g>
</svg>
