<svg xmlns="http://www.w3.org/2000/svg" width="19.994" height="23.538" viewBox="0 0 19.994 23.538">
  <g id="notification-inactive" transform="translate(-334.776 -57.231)">
    <path id="Path_619" data-name="Path 619" d="M344.816,57.231h-.085c-3.95,0-7.57,2.861-7.921,6.639-.023.273-.039.552-.05.853l-.014.653,0,.705.015-.062a4.727,4.727,0,0,1-1.14,2.234l-.067.086a4.708,4.708,0,0,0-.773,2.364v.277a4.7,4.7,0,0,0,1.072,3.078,5.673,5.673,0,0,0,3.587,1.766,49.521,49.521,0,0,0,10.673,0,5.59,5.59,0,0,0,3.547-1.729,4.706,4.706,0,0,0,1.114-2.9v-.457a4.63,4.63,0,0,0-.776-2.392l-.062-.079-.167-.195a4.816,4.816,0,0,1-.917-1.8l-.05-.21-.013-.316c0-.089,0-.188,0-.305v-.754c0-.329-.011-.554-.033-.808-.362-3.784-3.984-6.643-7.932-6.643m-.085,1.384h.085c3.283,0,6.279,2.366,6.568,5.386l.015.209c.006.106.009.219.011.354v.891l0,.334c0,.149.01.278.02.421l.013.092.062.268a6.21,6.21,0,0,0,1.23,2.421l.133.154-.014-.024a3.231,3.231,0,0,1,.542,1.647v.2a3.294,3.294,0,0,1-.763,2.2,4.216,4.216,0,0,1-2.664,1.275,48.148,48.148,0,0,1-10.4,0,4.29,4.29,0,0,1-2.705-1.31,3.308,3.308,0,0,1-.723-2.142v-.257l.019-.21a3.31,3.31,0,0,1,.409-1.231l.1-.158-.047.054A6.112,6.112,0,0,0,338.1,66.3l.014-.141,0-.7c0-.144,0-.267.006-.4.008-.4.025-.742.053-1.068.28-3.013,3.273-5.38,6.557-5.38" fill="#f1f1f1" fill-rule="evenodd"/>
    <path id="Path_620" data-name="Path 620" d="M346.834,78.371a.679.679,0,0,1,.963-.105.7.7,0,0,1,.1.973,3.832,3.832,0,0,1-.688.672,4.035,4.035,0,0,1-5.654-.675.7.7,0,0,1,.109-.972.68.68,0,0,1,.963.11,2.675,2.675,0,0,0,3.753.435,2.523,2.523,0,0,0,.45-.438" fill="#f1f1f1" fill-rule="evenodd"/>
  </g>
</svg>
