<svg id="Group_1426" data-name="Group 1426" xmlns="http://www.w3.org/2000/svg" xmlns:xlink="http://www.w3.org/1999/xlink" width="27.825" height="27.797" viewBox="0 0 27.825 27.797">
  <defs>
    <clipPath id="clip-path">
      <rect id="Rectangle_770" data-name="Rectangle 770" width="27.825" height="27.797" fill="#fff"/>
    </clipPath>
  </defs>
  <g id="Group_1425" data-name="Group 1425" clip-path="url(#clip-path)">
    <path id="Path_1060" data-name="Path 1060" d="M55.475,47.23a8.127,8.127,0,1,1-8.159,7.992,8.169,8.169,0,0,1,8.159-7.992m6.856,8.122a6.888,6.888,0,1,0-6.871,6.885,6.918,6.918,0,0,0,6.871-6.885" transform="translate(-41.533 -41.458)" fill="#fff"/>
    <path id="Path_1061" data-name="Path 1061" d="M65.433,3.283a11.864,11.864,0,0,0-3.876-1.436A12.275,12.275,0,0,0,52.8,3.468c-.035.021-.068.045-.1.063a.654.654,0,0,1-.861-.216.578.578,0,0,1,.2-.824,12.378,12.378,0,0,1,2.385-1.218A13.283,13.283,0,0,1,60.066.361a14.035,14.035,0,0,1,6.109,1.831c.335.187.335.189.336-.193,0-.437,0-.874,0-1.311A.612.612,0,0,1,67.126,0a.629.629,0,0,1,.625.657q.018,1.646,0,3.293a.581.581,0,0,1-.615.624q-1.662.022-3.325,0A.578.578,0,0,1,63.22,4a.6.6,0,0,1,.593-.646c.415-.026.833-.008,1.25-.015a.655.655,0,0,0,.37-.052" transform="translate(-45.415 0)" fill="#fff"/>
    <path id="Path_1062" data-name="Path 1062" d="M191.886,66.386a10.733,10.733,0,0,0,1.5-3.943,12.266,12.266,0,0,0-1.635-8.751c-.259-.42-.189-.772.169-.969a.626.626,0,0,1,.89.321,14.289,14.289,0,0,1,1.646,4.049,13.493,13.493,0,0,1-1.466,9.942c-.056.1-.19.2-.112.322.063.1.208.043.317.044.417,0,.834,0,1.25,0a.612.612,0,0,1,.673.6.6.6,0,0,1-.613.629q-1.646.03-3.293,0a.588.588,0,0,1-.625-.673q-.009-1.585,0-3.17a.6.6,0,0,1,.592-.672.672.672,0,0,1,.7.627c.027.262.012.528.013.792,0,.284,0,.567,0,.851" transform="translate(-167.289 -46.206)" fill="#fff"/>
    <path id="Path_1063" data-name="Path 1063" d="M48.1,192.163a11.192,11.192,0,0,0,3.965,1.613,12.016,12.016,0,0,0,8.975-1.639.674.674,0,0,1,.744-.069.621.621,0,0,1,.3.593.653.653,0,0,1-.4.54,13.556,13.556,0,0,1-3.209,1.463,13.367,13.367,0,0,1-10.581-1.131c-.338-.182-.339-.18-.34.2,0,.325.006.651,0,.976a.61.61,0,0,1-.631.671.6.6,0,0,1-.61-.66q-.012-1.57,0-3.14a.6.6,0,0,1,.669-.66q1.586-.013,3.172,0a.61.61,0,0,1,.692.608c.006.351-.237.588-.649.627-.121.011-.244.007-.366.007H48.1" transform="translate(-40.656 -167.584)" fill="#fff"/>
    <path id="Path_1064" data-name="Path 1064" d="M3.229,49.244A6.593,6.593,0,0,0,2.3,50.99,12.348,12.348,0,0,0,3.22,61.838a2.4,2.4,0,0,1,.22.432.625.625,0,0,1-.344.738.539.539,0,0,1-.671-.207,7.333,7.333,0,0,1-.437-.732A13.95,13.95,0,0,1,.341,56.5a13.544,13.544,0,0,1,1.671-7.655c.207-.381.206-.384-.23-.386-.386,0-.774.018-1.158-.013a.612.612,0,0,1-.515-.96.579.579,0,0,1,.52-.267c1.088-.006,2.175-.012,3.263,0a.618.618,0,0,1,.64.67q.011,1.509,0,3.018a.594.594,0,0,1-.549.652.667.667,0,0,1-.71-.5,2.87,2.87,0,0,1-.043-.788c-.006-.344,0-.689,0-1.034" transform="translate(0 -41.445)" fill="#fff"/>
    <path id="Path_1065" data-name="Path 1065" d="M100.778,76.167a.565.565,0,0,1,.594.466,1.111,1.111,0,0,1,.027.362.448.448,0,0,0,.326.537,1.461,1.461,0,0,1,.439.269.682.682,0,0,1,.136.951.659.659,0,0,1-.933-.006.774.774,0,0,0-1.135.016.694.694,0,0,0-.177.756.756.756,0,0,0,.673.495,2.1,2.1,0,0,1,1.7,1.139,1.9,1.9,0,0,1-.7,2.554.772.772,0,0,0-.447.817.591.591,0,0,1-.642.7.582.582,0,0,1-.581-.486.4.4,0,0,1-.013-.151A.7.7,0,0,0,99.5,83.7a.766.766,0,0,1-.415-.388.618.618,0,0,1,.139-.8.6.6,0,0,1,.784.051.84.84,0,0,0,.7.285.746.746,0,0,0,.642-.769c-.017-.383-.344-.786-.712-.741-1.26.156-2.1-1.658-1.735-2.62a1.984,1.984,0,0,1,.962-1.13.451.451,0,0,0,.286-.5,1.815,1.815,0,0,1,0-.365.589.589,0,0,1,.617-.551" transform="translate(-86.745 -66.859)" fill="#fff"/>
  </g>
</svg>
