<svg id="Group_1443" data-name="Group 1443" xmlns="http://www.w3.org/2000/svg" xmlns:xlink="http://www.w3.org/1999/xlink" width="23.143" height="23.407" viewBox="0 0 23.143 23.407">
  <defs>
    <clipPath id="clip-path">
      <rect id="Rectangle_791" data-name="Rectangle 791" width="23.143" height="23.407" fill="#d19422"/>
    </clipPath>
  </defs>
  <g id="Group_1442" data-name="Group 1442" clip-path="url(#clip-path)">
    <path id="Path_1097" data-name="Path 1097" d="M3.925,8.062c.492-.4.915-.549,1.382-.259a.969.969,0,0,1,.471.984,1.163,1.163,0,0,1-.387.7c-.565.571-1.127,1.145-1.7,1.7a1.054,1.054,0,0,1-1.585,0C1.547,10.654,1,10.106.464,9.556S-.141,8.481.233,8.019,1.122,7.54,1.8,7.988c.113-.157.059-.336.066-.5a28.886,28.886,0,0,1,.073-3.126A5.052,5.052,0,0,1,6.892.016c2.393-.031,4.787-.008,7.181,0a1.911,1.911,0,0,1,.521.075.981.981,0,0,1,.721.968.98.98,0,0,1-.709.932,2.241,2.241,0,0,1-.763.079q-3.4,0-6.8,0a2.974,2.974,0,0,0-3.122,3.11c0,.927,0,1.853,0,2.884" transform="translate(0 0)" fill="#d19422"/>
    <path id="Path_1098" data-name="Path 1098" d="M59.7,64.728a1.561,1.561,0,0,1-.853.363.95.95,0,0,1-.886-.476.855.855,0,0,1,.028-1.039,18.5,18.5,0,0,1,2.212-2.21.937.937,0,0,1,1.272.172c.614.59,1.218,1.191,1.805,1.807a1.026,1.026,0,0,1,.106,1.435,1.015,1.015,0,0,1-1.427.085,2.168,2.168,0,0,0-.2-.092c0,.338,0,.635,0,.931a15.853,15.853,0,0,1-.115,2.932,5.069,5.069,0,0,1-5.066,4.118c-1.655.027-3.311.005-4.966.005-.048,0-.1,0-.145,0-.831-.045-1.3-.44-1.275-1.074.023-.6.513-.972,1.31-.973,1.671,0,3.344-.043,5.014.01a3.121,3.121,0,0,0,3.2-3.223c-.077-.887-.014-1.786-.014-2.767" transform="translate(-40.486 -49.36)" fill="#d19422"/>
    <path id="Path_1099" data-name="Path 1099" d="M39.414,39.268a.357.357,0,0,1-.372-.372V37.87a5.248,5.248,0,0,1-1.911-.581,3.128,3.128,0,0,1-1.154-1.048,2.639,2.639,0,0,1-.416-1.3.3.3,0,0,1,.1-.215.316.316,0,0,1,.231-.1h1.874a.542.542,0,0,1,.312.074,1.264,1.264,0,0,1,.208.194,1.731,1.731,0,0,0,.334.431,1.575,1.575,0,0,0,.565.335,2.571,2.571,0,0,0,.87.126,2.529,2.529,0,0,0,1.3-.267.819.819,0,0,0,.439-.729.7.7,0,0,0-.238-.542,2.126,2.126,0,0,0-.766-.388,13.665,13.665,0,0,0-1.405-.35,8.619,8.619,0,0,1-1.926-.617,2.956,2.956,0,0,1-1.213-1,2.911,2.911,0,0,1,.439-3.563,4.075,4.075,0,0,1,2.358-1.041V26.253a.356.356,0,0,1,.372-.372h1.235a.368.368,0,0,1,.26.1.351.351,0,0,1,.111.268v1.071a4.5,4.5,0,0,1,1.725.639A3.514,3.514,0,0,1,43.81,29a2.22,2.22,0,0,1,.379,1.116.311.311,0,0,1-.089.215.3.3,0,0,1-.224.1H41.913a.634.634,0,0,1-.282-.059.544.544,0,0,1-.208-.194,1.016,1.016,0,0,0-.477-.573,1.833,1.833,0,0,0-1-.246,1.918,1.918,0,0,0-1.011.23.776.776,0,0,0-.373.707.757.757,0,0,0,.2.52,1.609,1.609,0,0,0,.677.387,12.068,12.068,0,0,0,1.294.342,9.707,9.707,0,0,1,2.187.633,2.8,2.8,0,0,1,1.167,4.038A3.235,3.235,0,0,1,42.866,37.3a5.367,5.367,0,0,1-1.845.55V38.9a.352.352,0,0,1-.111.267.373.373,0,0,1-.26.1Z" transform="translate(-28.688 -20.879)" fill="#d19422"/>
  </g>
</svg>
