<svg xmlns="http://www.w3.org/2000/svg" width="10" height="10" viewBox="0 0 10 10">
  <path id="upload" d="M243.125,144a.473.473,0,0,1,.495.316l.005.049v.094l1.1,1.074a.36.36,0,0,1,0,.517.383.383,0,0,1-.489.034l-.042-.035-.567-.555v4.734c0,.2-.224.365-.5.365a.474.474,0,0,1-.495-.315l-.005-.05v-4.979l-.817.8a.382.382,0,0,1-.488.036l-.042-.035a.359.359,0,0,1-.038-.476l.037-.041,1.457-1.425a.38.38,0,0,1,.319-.1.56.56,0,0,1,.072,0m-2.441,3.308a.365.365,0,0,1,.051.727l-.051,0h-.467a1.452,1.452,0,0,0-1.465,1.345l0,.084v2.374a1.445,1.445,0,0,0,1.381,1.426l.086,0h5.566a1.452,1.452,0,0,0,1.465-1.345l0-.084v-2.379a1.441,1.441,0,0,0-1.376-1.421l-.086,0h-.471a.365.365,0,0,1-.051-.727l.051,0h.471a2.186,2.186,0,0,1,2.209,2.05l0,.1v2.379A2.186,2.186,0,0,1,245.887,154l-.1,0h-5.566A2.193,2.193,0,0,1,238,151.943l0-.1v-2.374a2.186,2.186,0,0,1,2.113-2.157l.1,0Z" transform="translate(-238 -144)" fill="#fff" fill-rule="evenodd"/>
</svg>
