<svg id="Group_1389" data-name="Group 1389" xmlns="http://www.w3.org/2000/svg" xmlns:xlink="http://www.w3.org/1999/xlink" width="19.523" height="20" viewBox="0 0 19.523 20">
  <defs>
    <clipPath id="clip-path">
      <rect id="Rectangle_744" data-name="Rectangle 744" width="19.523" height="20" fill="none"/>
    </clipPath>
  </defs>
  <g id="Group_1388" data-name="Group 1388" clip-path="url(#clip-path)">
    <path id="Path_1022" data-name="Path 1022" d="M9.743,113.457H1.221a1.153,1.153,0,0,1-.959-.352A1.085,1.085,0,0,1,0,112.38q0-3.83,0-7.66a1,1,0,0,1,.938-1.041.989.989,0,0,1,1.071.952,3.287,3.287,0,0,1,.012.344q0,3.054,0,6.108c0,.341.008.35.341.35h14.8c.319,0,.332-.013.332-.334q0-3.091,0-6.182a1.6,1.6,0,0,1,.079-.606.991.991,0,0,1,1.085-.626,1.029,1.029,0,0,1,.853.924c.008.081.005.164.005.246q0,3.695,0,7.389a1.066,1.066,0,0,1-1.208,1.213q-4.286,0-8.571,0" transform="translate(0 -93.457)" fill="#1a1818"/>
    <path id="Path_1023" data-name="Path 1023" d="M63.577,3.476l-.91.926a1.026,1.026,0,0,1-.714.341A.96.96,0,0,1,61,4.18a.915.915,0,0,1,.149-1.075c.17-.2.366-.377.551-.563q1.1-1.1,2.194-2.194a.988.988,0,0,1,1.5-.007c.9.892,1.793,1.783,2.68,2.683a1,1,0,1,1-1.426,1.4c-.311-.313-.62-.629-.944-.957a.452.452,0,0,0-.054.312q0,4.433,0,8.865a.957.957,0,0,1-.56.913.941.941,0,0,1-1.024-.085,1.013,1.013,0,0,1-.42-.872q.006-4.4,0-8.791V3.517l-.068-.041" transform="translate(-54.884 0)" fill="#1a1818"/>
  </g>
</svg>
